<?xml version="1.0" encoding="iso-8859-1"?>
<!-- Generator: Adobe Illustrator 22.1.0, SVG Export Plug-In . SVG Version: 6.00 Build 0)  -->
<svg version="1.1" xmlns="http://www.w3.org/2000/svg" xmlns:xlink="http://www.w3.org/1999/xlink" x="0px" y="0px"
	 viewBox="0 0 50 50" style="enable-background:new 0 0 50 50;" xml:space="preserve">
<g id="Layer_1">
	<path d="M39,7c0-3.309-2.691-6-6-6H7C3.691,1,1,3.691,1,7c0,2.967,2.167,5.431,5,5.91V43c0,3.309,2.691,6,6,6h31
		c3.309,0,6-2.691,6-6v-1H39V7z M3,7c0-2.206,1.794-4,4-4h21.54C27.586,4.063,27,5.462,27,7s0.586,2.937,1.54,4H7
		C4.794,11,3,9.206,3,7z M8,43V13h25v-2c-2.206,0-4-1.794-4-4s1.794-4,4-4s4,1.794,4,4v35v1c0,1.538,0.586,2.937,1.54,4H12
		C9.794,47,8,45.206,8,43z M46.873,44c-0.444,1.723-2.013,3-3.873,3s-3.429-1.277-3.873-3H46.873z"/>
	<rect x="12" y="17" width="4" height="2"/>
	<rect x="19" y="17" width="14" height="2"/>
	<rect x="12" y="22" width="4" height="2"/>
	<rect x="19" y="22" width="14" height="2"/>
	<rect x="12" y="27" width="4" height="2"/>
	<rect x="19" y="27" width="14" height="2"/>
	<rect x="12" y="32" width="4" height="2"/>
	<rect x="19" y="32" width="14" height="2"/>
	<rect x="12" y="37" width="4" height="2"/>
	<rect x="19" y="37" width="14" height="2"/>
	<rect x="12" y="42" width="4" height="2"/>
	<rect x="19" y="42" width="14" height="2"/>
</g>
<g>
</g>
</svg>
