<?xml version="1.0" standalone="no"?>
<!DOCTYPE svg PUBLIC "-//W3C//DTD SVG 1.0//EN" "http://www.w3.org/TR/2001/REC-SVG-20010904/DTD/svg10.dtd">
<svg xmlns="http://www.w3.org/2000/svg" xmlns:xlink="http://www.w3.org/1999/xlink" id="body_1" width="24" height="24">

<g transform="matrix(1 0 0 1 0 0)">
    <path d="M10.75 6.5L17.25 6.5L10.75 6.5L17.25 6.5L10.75 6.5zM6 7.25L6.5 7.25L6 7.25L6.5 7.25L6 7.25L6 7.25L6.5 7.25L6 7.25zM10 16.25L16.5 16.25L10 16.25L16.5 16.25L10 16.25L10 16.25L16.5 16.25L10 16.25zM6.75 15.5L7.25 15.5L6.75 15.5L7.25 15.5L6.75 15.5z" stroke="none" fill="#000000" fill-rule="nonzero" />
    <path d="M3.25 2L3.25 9C 3.25 9.372 3.366 9.716 3.5640001 10L3.5640001 10L3.5640001 17C 3.5640001 17.966 4.348 18.75 5.314 18.75L5.314 18.75L22.814 18.75L5.314 18.75L22.814 18.75L22.814 11.75C 22.814 11.378 22.698 11.034 22.5 10.75C 22.698 10.466 22.814 10.122 22.814 9.75L22.814 9.75L22.814 2.75L22.814 9.75L22.814 2.75L3.25 2.75L3.25 2zM3.25 11L20.75 11L3.25 11L20.75 11L20.75 4L3.25 11L20.75 11L20.75 4L3.25 4L3.25 11L20.75 11L20.75 4L3.25 4L3.25 11C 3.25 11.138 3.362 11.25 3.5 11.25zM3.25 12.5L3.25 19.5C 3.25 19.638 3.362 19.75 3.5 19.75L3.5 19.75L21 19.75L3.5 19.75L21 19.75L21 12.75L3.5 19.75L21 19.75L21 12.75L3.25 12.75z" stroke="none" fill="#000000" fill-rule="nonzero" />
</g>
</svg>