<?xml version="1.0" encoding="UTF-8"?><svg xmlns="http://www.w3.org/2000/svg" xmlns:xlink="http://www.w3.org/1999/xlink" version="1.1" id="Layer_1" x="0px" y="0px" viewBox="0 0 512 512" xml:space="preserve"><style type="text/css">.st0{fill:none;}</style><g id="XMLID_112_"><path id="XMLID_435_" class="st0" d="M410 158.7v-108c0-5.5-4.5-10-10-10H110c-5.5 0-10 4.5-10 10v108h310zm-137-75h76c11 0 20 9 20 20s-9 20-20 20h-76c-11 0-20-9-20-20s9-20 20-20zm-118.3-2.9c12.9 0 23.3 10.4 23.3 23.2 0 12.8-10.4 23.2-23.3 23.2s-23.3-10.4-23.3-23.2c0-12.8 10.4-23.2 23.3-23.2z" fill="none"/><path id="XMLID_451_" class="st0" d="M410 304.7v-106H100v106h310zm-137-69h76c11 0 20 9 20 20s-9 20-20 20h-76c-11 0-20-9-20-20s9-20 20-20zm-118.3-2.5c12.9 0 23.3 10.4 23.3 23.2 0 12.8-10.4 23.2-23.3 23.2s-23.3-10.4-23.3-23.2c0-12.8 10.4-23.2 23.3-23.2z" fill="none"/><path id="XMLID_455_" class="st0" d="M100 344.7v118c0 5.5 4.5 10 10 10h290c5.5 0 10-4.5 10-10v-118H100zm54.7 87.3c-12.9 0-23.3-10.4-23.3-23.2s10.4-23.2 23.3-23.2S178 396 178 408.8 167.6 432 154.7 432zm194.3-3.3h-76c-11 0-20-9-20-20s9-20 20-20h76c11 0 20 9 20 20s-9 20-20 20z" fill="none"/><path id="XMLID_459_" d="M400 .7H110c-27.6 0-50 22.4-50 50v412c0 27.6 22.4 50 50 50h290c27.6 0 50-22.4 50-50v-412c0-27.5-22.4-50-50-50zm-290 40h290c5.5 0 10 4.5 10 10v108H100v-108c0-5.5 4.5-10 10-10zm300 158v106H100v-106h310zm-10 274H110c-5.5 0-10-4.5-10-10v-118h310v118c0 5.6-4.5 10-10 10z"/><ellipse id="XMLID_462_" cx="154.7" cy="104" rx="23.3" ry="23.2"/><ellipse id="XMLID_463_" cx="154.7" cy="256.4" rx="23.3" ry="23.2"/><ellipse id="XMLID_464_" cx="154.7" cy="408.8" rx="23.3" ry="23.2"/><path id="XMLID_465_" d="M273 123.7h76c11 0 20-9 20-20s-9-20-20-20h-76c-11 0-20 9-20 20s9 20 20 20z"/><path id="XMLID_466_" d="M273 275.7h76c11 0 20-9 20-20s-9-20-20-20h-76c-11 0-20 9-20 20 0 11.1 9 20 20 20z"/><path id="XMLID_467_" d="M349 388.7h-76c-11 0-20 9-20 20s9 20 20 20h76c11 0 20-9 20-20s-9-20-20-20z"/></g><metadata><rdf:RDF xmlns:rdf="http://www.w3.org/1999/02/22-rdf-syntax-ns#" xmlns:rdfs="http://www.w3.org/2000/01/rdf-schema#" xmlns:dc="http://purl.org/dc/elements/1.1/"><rdf:Description about="https://iconscout.com/legal#licenses" dc:title="server" dc:description="server" dc:publisher="Iconscout" dc:date="2018-04-23" dc:format="image/svg+xml" dc:language="en"><dc:creator><rdf:Bag><rdf:li>Neelpari Artist</rdf:li></rdf:Bag></dc:creator></rdf:Description></rdf:RDF></metadata></svg>